<?xml version="1.0" encoding="utf-8"?>
<!-- Generator: Adobe Illustrator 21.0.0, SVG Export Plug-In . SVG Version: 6.00 Build 0)  -->
<svg version="1.1" id="Calque_1" xmlns="http://www.w3.org/2000/svg" xmlns:xlink="http://www.w3.org/1999/xlink" x="0px" y="0px"
	 viewBox="0 0 800 600" style="enable-background:new 0 0 800 600;" xml:space="preserve">
<style type="text/css">
	.st0{fill:#FFFFFF;}
</style>
<g id="_x23_ffffffff">
</g>
<g id="_x23_01418dff">
	<path class="st0" d="M165.5,147.6c0.3-0.1,0.8-0.2,1.1-0.3c5.1,7.8,9,16.3,13.8,24.3c8.6,14.7,17.1,29.5,25.7,44.1
		c9.7,17.8,20.3,35,30.3,52.6c6,11.3,12.8,22.1,19.1,33.3c14.1-11.8,30.2-21.1,46.9-29c9.9-4.1,19.7-8.5,30.1-11.2
		c15.4-4.7,31.4-7.3,47.4-9c11.4-0.5,22.8-1.6,34.2-0.5c-5.6,13.4-11.9,26.4-18.2,39.5c-4,0.1-8-0.8-12-0.8
		c-9.7,1.2-19.6,0.8-29.3,2.2c-26.8,4-53.2,11.9-77.1,24.8c-11.7,6.6-23.3,13.5-33.7,22.1c-11.3,8.9-22.1,18.6-31.5,29.5
		c-6.8,6.6-12.2,14.5-18.4,21.6c-5,6.1-9.4,12.7-13.8,19.3c-1.5,2.2-2.7,4.7-3.4,7.2c4-0.8,5.9-4.6,8.4-7.3
		c8.3-9.3,17.3-18.1,27.1-25.9c8-7.4,17.3-13.3,26.2-19.6c6.9-4.6,14.3-8.3,21.4-12.6c13.9-7.1,28.4-12.7,43.2-17.6
		c11.9-3.6,24.1-5.8,36.4-7.7c10.1-1.4,20.3-1,30.4-2c3.4-0.2,6.7,0.5,10,0.7c-4.6,11.7-10.8,22.6-15.5,34.2c-7.5-0.1-15-0.9-22.5-1
		c-11.5,0.8-23.2,0.6-34.6,3c-5,1-10.1,1.5-15.1,2.8c11.6,21.5,24.1,42.6,36.6,63.6c0.6,1.3,0.9,2.8,1.2,4.3
		c-49.1-0.1-98.3-0.2-147.4,0c-0.1-2.3-0.2-4.6-0.3-6.9c-13.2-0.2-26.4-0.3-39.6,0.1c-0.1,2.2-0.2,4.5-0.4,6.8
		c-47.4,0-94.9-0.1-142.3,0v-1.7c3.6-4.5,6-9.8,9.1-14.7c4.5-7.4,8.7-15,13.5-22.3c8.2-13.6,16.1-27.3,24.2-41
		c6.2-9.6,11.5-19.8,17.5-29.5c3.4-5.5,6.2-11.3,9.9-16.6c3.5,2.1,6.5,4.9,9.3,7.8c24,23.3,43.9,50.8,58,81.2
		c3.7,7.1,6.1,14.9,10.2,21.9c0.9-0.1,2.8-0.3,3.7-0.4c-0.5-7.8-2.8-15.4-4.9-22.9c-10-32.1-25.3-62.8-47.5-88.2
		c-5.3-6.9-11.8-12.5-17.7-18.8c4.5-7.7,8.8-15.5,13.7-22.9c6.7,5.7,11.3,13.2,16.8,19.8c6.4,9.8,12.5,19.9,17.5,30.5
		c3.5,8.4,7,16.8,10.1,25.3c4.7,12.6,7.7,25.8,10.7,38.9c1.3,8.4,3.6,16.7,4,25.3c0.4,4.2,0.2,8.6,1.5,12.6c1.3,1.3,3.4,0.2,5.1,0.4
		c-0.2-12.4-0.6-24.8-2.1-37.2c-0.6-13-3.5-25.8-5-38.7c-1.8-9.5-4.7-18.7-6.9-28c-6.4-20.4-14.6-40.4-26.7-58.1
		c-3-5.2-7.5-9.4-11-14.2c0.4-2,1.5-3.8,2.5-5.6c4.9-8.3,9.8-16.5,14.2-25.1c5.7-10,11.9-19.7,17.1-29.9
		C153,169.5,159.1,158.5,165.5,147.6 M152.9,185.9c-5.6,10.3-11.9,20.3-17.4,30.7c-1.2,2.4-3.1,4.6-3.5,7.3c1.7,3.6,4,6.9,5.7,10.5
		c11.1,20.9,17.8,43.8,22.4,66.9c3.4,12.4,4,25.2,6.2,37.8c0,4.3,0.7,8.6,1.1,12.9c1,21.6,1.8,43.3,1,64.9c1.3,0,3,1,3.9-0.4
		c9.6-25.6,23.3-49.6,40-71.3c5.8-6.6,10.8-13.7,17.1-19.8c6.1-5.9,11.8-12.3,18.6-17.4c1.1-0.7,0.9-2.3,0.3-3.2
		c-5.9-11-12.5-21.5-18.6-32.4c-4.1-7.3-8.8-14.2-12.5-21.7c-8.1-13.8-16.1-27.7-24.2-41.5c-2-4.2-4.5-8-6.9-11.9
		c-5.5-10.7-12.1-20.8-17.9-31.3c-0.6-1.1-1.4-2.1-2.2-3C161.5,170.4,157.1,178.1,152.9,185.9 M44.7,371.6
		c-10.3,17.5-20.7,35-30.8,52.6c2.7,0.1,5.4,0.2,8.1,0.2c40.1-0.1,80.2,0.1,120.3-0.1c0.1-2.3,0.1-4.6,0.1-6.9
		c1.2-0.1,2.5-0.2,3.7-0.3c-2.7-6.9-7.1-12.9-11.1-19.1c-18.2-25.5-40.2-48.5-66.1-66.3C60.4,344.7,53.2,358.5,44.7,371.6
		 M262.2,373.4c-27.9,10.1-54.5,24.3-77.6,43.2c-2.1,1.4-2.2,4.1-2,6.4c1,2.1,3.5,1.2,5.3,1.5c42.9-0.2,85.7,0.2,128.6-0.2
		c-3.8-8.1-8.9-15.5-13.1-23.4c-6-11.4-13-22.2-18.9-33.5C276.6,367.2,269.8,371.9,262.2,373.4z"/>
	<path class="st0" d="M498,248c9.9-7.8,22.4-11.9,35-12.5c4.8,0.1,9.6,1.2,14.2,2.6c-1.4,3.4-3.1,6.8-5.4,9.7
		c-4.3,0.7-8.4-1.6-12.8-1.3c-8.8,0.3-17.9,3-24.1,9.4c-5.4,5.3-11.5,11.9-10.6,20.1c0,2.5,2.3,4.2,4.2,5.5c4.3,1.6,9.1,1,13.6,0.5
		c5.2-0.6,9.7-3.7,14.8-4.6c-0.8,3.4-2.5,6.4-4.2,9.4c-1.7,3.2-5.6,3.9-8.9,4.8c-6.9,1.1-14.1,3-21.1,1c-6.3-0.6-12-6-12-12.5
		c-0.7-6.4,2.2-12.5,5.1-18C488.7,256.4,493.6,252.3,498,248z"/>
	<path class="st0" d="M571.7,236.6c4.5,0,8.9-0.1,13.4,0c-5.3,5.3-12.1,8.9-18.1,13.4c-2.5,2.2-5.9,1.4-8.9,1.6
		C562.2,246.3,567.6,242,571.7,236.6z"/>
	<path class="st0" d="M678.2,248.2c3.7-0.6,7.4-0.2,11-0.2c-1.1,2.3-2.3,4.5-3.3,6.8c5,0.3,10.9-1.3,15.1,2.2
		c3.5,3.8,2.5,9.6,0.9,14c-6.7,14.3-22.5,23.7-38.3,22.4c-3.3,6.1-6.3,12.3-9.9,18.2c-3.9,0.1-7.8,0.1-11.7,0
		c6-10.5,11.6-21.2,17.9-31.6c1.8-3.2,4.2-6.2,4.9-9.8c-3.6,1.9-6.1,5.9-10.4,6.4c2.8-7.5,10.9-10.7,16.2-16
		C673.5,256.6,675.2,252,678.2,248.2 M680.6,263.5c-3.9,6.5-6.7,13.6-11.4,19.6c3.3,0.6,7.1,1.1,10.1-0.8c6.1-3.4,12-9.4,11.4-16.9
		C688.2,262.3,684,263.6,680.6,263.5z"/>
	<path class="st0" d="M542,264c6.2-5.7,14.2-10.2,22.9-9.3c4.5-0.3,8.6,3,9.5,7.3c0.3,3.8-0.9,7.5-2.7,10.8c-0.7,1-1.2,2.8-2.7,2.6
		c-7.9,0.3-15.7,0-23.6,0.1c-1,2.9-2.1,7,1.2,8.8c6.4,2,12.3-2,18.5-3.1c-1.3,3.1-3.2,6-5.1,8.7c-2,2-5.2,1.8-7.8,2.4
		c-4.1,0.9-8.5,1.5-12.5,0c-5.3-0.6-7.8-6.7-7.2-11.4C533.9,274.6,537.2,268.5,542,264 M550.1,268.7c3.9,0.1,7.8,0,11.8,0.1
		c2-1.8,2.5-5-0.3-6.3C556.9,261.5,552.5,265,550.1,268.7z"/>
	<path class="st0" d="M625,263c5.2-4.2,11.2-8.3,18.1-8.3c4.3-0.3,9.4-0.1,11.9,4.1c2.5,5.4-0.4,11.4-3.1,16.2
		c-8.3,1.2-16.9-0.1-25.2,0.6c-0.4,2.6-0.4,5.3-0.2,7.9c7,3.4,14.3-1,21.2-2.5c-2.7,3.1-4.4,7.3-7.4,10.1
		c-6.4,1.1-13.2,3.5-19.6,1.1c-3.3-0.8-6.1-3.8-6.2-7.3C613.7,276.5,618.7,268.4,625,263 M631.9,268.7c4.2-0.1,8.4,0.5,12.5-0.4
		c0.5-1.4,0.5-2.8,0.6-4.3c-1.5-0.8-3-2.3-4.9-1.5C637,263.9,633.4,265.4,631.9,268.7z"/>
	<path class="st0" d="M592.2,257.3c4.5-2.5,9.8-2.2,14.8-2.3c5.6,0.1,11.2-0.2,16.8,0.4c-1.8,2.5-3,5.4-4.9,7.9
		c-2,0.4-4.1,0.4-6.2,0.4c0.2,9.5-8.4,16.5-16.9,18.9c-3.9,1.5-8.1,0.2-12.1,1.2c0,0.6,0.1,1.7,0.1,2.3c5.2,1.7,11.8,1.2,15.4,6
		c1.2,4.2,0,8.9-3.1,12c-3.8,4.6-9.8,6.1-15.4,7.3c-6.4,0.2-13.7,1.2-19.1-3c-1.8-2.2-1.5-5.5-0.2-7.9c2.4-3.4,6.3-5.4,10.3-6.1
		c-0.3-2.6-1.6-5.4-0.4-8c1.4-3.5,5.2-5.1,8.5-6.3c-0.5-2.3-1.6-4.6-1.4-7C580.3,266,585.5,259.9,592.2,257.3 M591.2,268.2
		c-1.5,1.9-2.9,4.9-1.3,7c6.6,2.6,13.7-5.5,11.8-11.9C597.4,261.2,593.4,264.9,591.2,268.2 M578.3,296.3c-3.1,0.7-6.9,2.1-7.2,5.8
		c5,2.5,11.6,2,16.6-0.4c0-1.1,0-2.2,0-3.3C584.6,297.6,581.6,296,578.3,296.3z"/>
	<path class="st0" d="M485.4,325.4c2.9-5.8,5.5-11.9,9.6-16.9c3.6-0.4,7.2-0.2,10.7,0c-6.3,13.3-14.2,25.9-21.5,38.7
		c-3.2,5-5.3,10.6-8.8,15.5c-5.4,2.4-11.7,1.9-17.5,1.8c-4.6-0.5-10.5-2.2-11.4-7.5c-1.9-8.1,3.2-15.4,8.4-21
		c5.1-4.9,11.8-7.8,18.5-9.5C477.4,325.6,481.6,326.8,485.4,325.4 M458.8,347.6c-0.6,2.2-0.8,4.9,1.1,6.6c2.2,1.7,5.1,1.5,7.7,1.3
		c2.7-2.4,3.9-6,5.7-9c1.6-3.6,4.1-6.6,5.3-10.4C470.3,335.2,462.2,340.2,458.8,347.6z"/>
	<path class="st0" d="M501,334c6.4-5.2,14.6-9,23-7.9c2.8,0,5.5,1.6,6.9,4c2,5.9,0.2,12.4-3.5,17.2c-7.9-0.1-15.7-0.2-23.6,0
		c-2.8,2.2-2.1,8.5,2.1,8.6c5.7,0.9,10.8-2.7,16.4-3.1c-1.3,3.3-3.4,6.1-5.3,9.1c-5.8,1.9-12,3.1-18.1,2.3c-3.6-0.8-8-2.5-8.4-6.7
		C488.8,348.4,494.7,340,501,334 M507.9,340.1c3.7,0.2,7.4,0.5,11,0.1c2.7-0.3,1.8-3.5,2.1-5.3C515.8,333,510.8,335.9,507.9,340.1z"
		/>
	<path class="st0" d="M428.6,399.2c4.2-14.8,21.9-24,36.5-19.3c2.1,0.7,5.6,1.2,5.7,4c-1.5,3.3-3.5,6.4-5.7,9.3
		c-4.4-3.8-10.5-6-16.1-4c-3.6,1.6-7.7,5.8-5,9.9c3.4,2.9,7.4,5.3,9.6,9.2c1.3,3.5,1,7.6-0.3,11.1c-4.5,10.1-15.3,16.9-26.3,17.2
		c-6.1-0.2-12.3-1.6-17-5.6c1.7-3.2,3.4-6.4,5.5-9.4c0.3,0,0.9-0.1,1.3-0.1c3.6,2.6,7.8,4.6,12.2,5.2c4.7,0.5,9.8-2.4,11.3-7
		c0.9-3.3-2.3-5.5-4.3-7.5C432.4,408.7,427.6,404.7,428.6,399.2z"/>
	<path class="st0" d="M691.6,386.9c1.2-2.6,2.5-5.1,4.3-7.3c10.6,0,21.2-0.2,31.8,0.1c-1,3.2-2.7,6.1-4.7,8.7
		c-6.6,0.8-13.5,0.1-20.1,0.3c-1.9,4.4-4.9,8.2-7,12.6c5.7,0.6,11.4,0.2,17.1,0.2c-1.8,3.4-3.1,7.2-6,9.8c-5.7,0.5-11.5,0-17.2,0.2
		c-3.1,7.1-7.8,13.3-11.1,20.2c-0.6,1.2-1.1,2.6-2.1,3.6c-4.1,0.3-8.2,0.4-12.2-0.2c3.8-8.2,9-15.5,13.2-23.5
		C681.8,403.2,687.1,395.3,691.6,386.9z"/>
	<path class="st0" d="M525.8,384.8c2.3-2.8,6.2-2.7,9.5-2c2.4,6.2-4.5,12.7-10.6,10.5C522.3,391,523.4,386.7,525.8,384.8z"/>
	<path class="st0" d="M591.5,390.5c4-1.2,8.3-0.4,12.4-0.1c-1.9,2-3.2,4.4-4.2,7c2.4,0.1,4.8,0.2,7.2,0.2c-1.7,3.1-3.3,6.3-5.9,8.8
		c-3,0.6-7.7-1.4-9.1,2.4c-2.7,5.6-7.9,10.3-7.7,16.9c3.3,0.2,6.3-1.1,9.5-1.5c-2,2.8-2.8,6.2-4.3,9.2c-3.1,2-6.9,2.7-10.5,3.1
		c-3.9,0.4-8.4-2.1-8.2-6.5c-0.2-9.3,8-15.4,11.2-23.5c-2.2,0-4.4,0-6.5-0.1c0.6-3.3,2.9-5.9,4.4-8.8c2.5-0.1,5,0,7.4,0
		C588.7,395.3,590,392.8,591.5,390.5z"/>
	<path class="st0" d="M518.5,397.5c3.8,0.1,7.6,0,11.4,0.1c-4.9,10-11.3,19.2-16.3,29.2c-1.8,2.8-3,6.1-5.1,8.6
		c-3.8,0.4-7.6,0.1-11.4,0.1C504.2,422.8,511.1,410.1,518.5,397.5z"/>
	<path class="st0" d="M539.4,397.5c3.7,0,7.3,0.1,11-0.1c0.1,0.7,0.3,2.1,0.4,2.9c4.4-1,8.5-3.5,13.2-2.9c2.6-0.2,5.9,1.8,5.6,4.7
		c0.8,6.5-3.8,11.7-6.6,17.1c-3.6,5.2-5.8,11.2-9.4,16.4c-3.8,0-7.7,0-11.5,0c3.7-6.5,7.7-12.9,11-19.6c1.3-2.8,4.1-5.3,3.5-8.6
		c-0.7-1.8-3.2-0.8-4.6-0.7c-3.3,1.1-6.4,3.1-8.9,5.5c-4.8,7.4-8,15.9-13.3,23c-3.5,1.1-7.4,0.4-11,0.2c2.9-7.1,7.6-13.3,11.1-20.1
		C532.8,409.1,536.6,403.5,539.4,397.5z"/>
	<path class="st0" d="M603.5,413.2c5.2-7.5,12.9-13.2,21.7-15.6c5-0.5,11.3-1.3,14.7,3.5c3.8,5.4,0.2,12.3-3,17.1
		c-8.2,0.6-16.4,0.1-24.6,0.2c-0.9,2.7-1.3,5.6-0.1,8.3c6.8,2.4,13.3-1.3,19.8-2.6c-1.4,3.6-3.6,7-6.6,9.5
		c-5.1,2.2-10.7,3.4-16.3,2.8c-4.7-0.8-9.9-4.1-9.9-9.3C598.7,422,601.2,417.5,603.5,413.2 M617.6,411.3c3.9,0.4,7.9,0.3,11.8,0
		c0-1.9,1.2-4.5-0.8-5.8C624,404.6,619.5,407.2,617.6,411.3z"/>
	<path class="st0" d="M760.4,397.5c3.7,0.1,7.4,0.1,11.1,0c0.4,7.2-1.4,14.2-1.8,21.4c3-2.8,5.4-6.1,8.1-9.2
		c3.5-4.1,7.3-7.9,10.7-12.1c3.8,0,7.6,0,11.5-0.1v1.8c-10.2,9.7-19.1,20.7-28.9,30.8c-7,8-14,16.1-21.3,23.7
		c-4.2,0.6-8.4,0.1-12.6,0c5.1-4.8,9.4-10.4,14.4-15.3c2.4-2.6,5.5-5.1,6.2-8.8c1.7-7.6,0.7-15.5,0.7-23.2c0.2,2.9,0.2,5.8,0.8,8.7
		C759.5,409.2,759.5,403.3,760.4,397.5z"/>
	<path class="st0" d="M478.5,400.7c9.4-3.4,20-4.8,29.6-1.8c-4.6,9.3-10.6,17.9-15.2,27.3c-1.8,3.1-3.3,6.6-5.8,9.3
		c-3.5-0.4-9,1.9-10.8-2.1c-3.2,1.4-6.5,3.3-10.2,3.2c-3.8,0.2-7.1-2.6-8.4-6c-1.1-5.6,1.7-10.9,4.3-15.6
		C466.1,408.9,471.7,403.7,478.5,400.7 M481.1,409.2c-6.1,3.6-11.4,10.2-10.8,17.6c4.3,1,9.4,0.3,12.3-3.2c2.3-3,3.8-6.5,5.6-9.8
		c1.2-2.3,2.9-4.3,3.3-6.9C487.9,407,484.1,407.1,481.1,409.2z"/>
	<path class="st0" d="M734.3,398.1c4.7-1.2,10.1-1.4,14.3,1.4c5,2.3,5,9,3.5,13.6c-3.4,9.3-11,17-20.1,20.9
		c-4.8,1.6-10.1,3.5-15.2,1.9c-3.3-0.6-6.1-3.1-7.7-6.1c-2-6.3,0-13.4,4.3-18.3c3.8-4.2,7.8-8.3,12.9-10.8
		C729,399.7,731.7,398.9,734.3,398.1 M731,408c-5.4,3.2-9.7,8.9-10.7,15c1.1,1.6,2.3,3.9,4.6,3.7c4.5,0.4,7.8-3.2,10.7-6.1
		c3.4-3.4,5.9-8.5,4-13.2C736.7,406.7,733.6,406.3,731,408z"/>
	<path class="st0" d="M645,411.4c8.3-0.3,16.6-0.1,25-0.1c-0.5,4.3-3.7,7.4-5.3,11.3c-8.6,0.1-17.2,0.1-25.8,0
		C640.3,418.6,642.9,415.2,645,411.4z"/>
</g>
</svg>
