<svg width="800pt" height="500" viewBox="0 100 800 400" version="1.1" xmlns="http://www.w3.org/2000/svg"><path opacity="1" d="M165.53 147.6c.28-.07.84-.2 1.12-.26 5.06 7.83 8.97 16.33 13.83 24.28 8.62 14.69 17.1 29.46 25.73 44.14 9.68 17.77 20.26 35.03 30.33 52.57 5.96 11.32 12.79 22.14 19.05 33.3 14.14-11.84 30.24-21.11 46.87-28.97 9.89-4.1 19.71-8.5 30.11-11.19 15.43-4.68 31.38-7.32 47.38-9.02 11.39-.46 22.84-1.65 34.22-.46-5.59 13.37-11.87 26.45-18.16 39.5-4.03.13-7.99-.8-12.01-.75-9.74 1.17-19.61.82-29.34 2.18-26.79 4.05-53.16 11.92-77.06 24.84-11.71 6.59-23.31 13.52-33.65 22.15-11.34 8.88-22.06 18.62-31.48 29.53-6.77 6.64-12.19 14.45-18.38 21.6-5.03 6.09-9.4 12.69-13.78 19.26-1.54 2.19-2.67 4.65-3.38 7.24 3.98-.76 5.85-4.61 8.4-7.31 8.33-9.31 17.32-18.06 27.09-25.86 8.03-7.45 17.34-13.26 26.23-19.6 6.88-4.61 14.31-8.34 21.4-12.61 13.86-7.08 28.43-12.69 43.2-17.56 11.89-3.59 24.13-5.76 36.37-7.73 10.07-1.43 20.27-1.05 30.38-2.03 3.35-.17 6.68.45 10.02.72-4.6 11.66-10.75 22.62-15.5 34.21-7.53-.07-15.02-.9-22.55-.99-11.55.82-23.25.64-34.65 3-5.03 1.04-10.15 1.55-15.13 2.83 11.56 21.53 24.1 42.55 36.57 63.56.65 1.34.9 2.83 1.23 4.28-49.14-.12-98.29-.19-147.42.05-.11-2.32-.21-4.63-.31-6.93-13.19-.16-26.39-.28-39.57.06-.12 2.25-.23 4.5-.37 6.75-47.44.01-94.88-.09-142.32.05v-1.74c3.64-4.5 6.04-9.8 9.09-14.68 4.5-7.42 8.67-15.03 13.46-22.26 8.18-13.61 16.12-27.34 24.25-40.98 6.15-9.64 11.48-19.76 17.48-29.49 3.41-5.47 6.17-11.32 9.87-16.6 3.51 2.07 6.47 4.9 9.3 7.81 24 23.27 43.91 50.83 58.02 81.15 3.7 7.15 6.09 14.94 10.24 21.87.92-.1 2.77-.29 3.69-.38-.55-7.83-2.81-15.36-4.89-22.89-9.99-32.06-25.32-62.84-47.48-88.25-5.28-6.86-11.85-12.51-17.73-18.8 4.52-7.66 8.85-15.45 13.66-22.93 6.65 5.66 11.27 13.18 16.8 19.84 6.39 9.81 12.5 19.87 17.5 30.47 3.53 8.36 7.04 16.75 10.06 25.31 4.74 12.6 7.71 25.76 10.73 38.85 1.29 8.43 3.57 16.72 4.04 25.27.45 4.21.16 8.56 1.46 12.64 1.26 1.31 3.42.23 5.05.42-.17-12.41-.64-24.84-2.13-37.16-.56-13.02-3.46-25.76-5.04-38.66-1.78-9.46-4.67-18.66-6.91-28.01-6.44-20.36-14.55-40.44-26.71-58.12-3.04-5.23-7.52-9.36-11.05-14.2.41-2.02 1.5-3.82 2.49-5.6 4.89-8.27 9.82-16.52 14.22-25.06 5.69-9.98 11.87-19.69 17.07-29.95 6.44-10.84 12.59-21.84 18.99-32.7m-12.64 38.25c-5.62 10.34-11.94 20.27-17.39 30.7-1.21 2.4-3.15 4.56-3.5 7.3 1.72 3.59 4.01 6.9 5.74 10.49 11.11 20.86 17.8 43.76 22.4 66.85 3.44 12.35 3.96 25.22 6.19 37.79 0 4.35.7 8.63 1.12 12.95 1.03 21.61 1.75 43.28.97 64.91 1.26.03 3.02.98 3.92-.38 9.6-25.58 23.29-49.62 39.96-71.26 5.76-6.55 10.85-13.69 17.08-19.82 6.08-5.94 11.81-12.29 18.6-17.44 1.12-.7.95-2.26.26-3.19-5.89-10.98-12.49-21.55-18.57-32.42-4.05-7.31-8.85-14.2-12.46-21.75-8.05-13.83-16.07-27.68-24.19-41.47-1.96-4.18-4.54-8-6.92-11.94-5.5-10.72-12.11-20.8-17.92-31.35-.59-1.09-1.38-2.05-2.18-2.99-4.47 7.62-8.95 15.23-13.11 23.02M44.73 371.6c-10.35 17.49-20.74 34.96-30.83 52.6 2.7.15 5.4.19 8.11.18 40.09-.09 80.18.09 120.26-.09.06-2.3.09-4.6.11-6.9 1.23-.1 2.46-.2 3.69-.31-2.7-6.87-7.08-12.94-11.07-19.11-18.17-25.53-40.21-48.47-66.06-66.28-8.54 12.99-15.75 26.85-24.21 39.91m217.5 1.79c-27.92 10.11-54.53 24.33-77.58 43.17-2.09 1.36-2.25 4.12-2 6.37.97 2.1 3.53 1.25 5.33 1.46 42.85-.18 85.71.22 128.56-.2-3.82-8.08-8.88-15.52-13.15-23.36-5.96-11.37-12.95-22.18-18.93-33.53-7.84-.12-14.67 4.61-22.23 6.09zm235.82-125.35c9.93-7.78 22.42-11.88 34.95-12.51 4.81.05 9.56 1.16 14.15 2.56-1.44 3.39-3.12 6.78-5.38 9.69-4.33.67-8.44-1.62-12.77-1.33-8.78.26-17.89 2.96-24.15 9.41-5.43 5.29-11.47 11.93-10.56 20.1.03 2.5 2.27 4.2 4.16 5.48 4.34 1.61 9.09 1.05 13.58.47 5.21-.6 9.68-3.7 14.83-4.57-.83 3.36-2.49 6.44-4.18 9.43-1.71 3.24-5.65 3.92-8.88 4.76-6.94 1.09-14.09 3.02-21.06.97-6.27-.58-12.02-5.99-11.96-12.46-.7-6.43 2.25-12.45 5.14-17.97 2.8-5.63 7.67-9.76 12.13-14.03zm73.67-11.39c4.46-.03 8.92-.06 13.38-.04-5.31 5.3-12.07 8.9-18.07 13.37-2.48 2.2-5.92 1.42-8.94 1.63 4.15-5.35 9.52-9.59 13.63-14.96zm106.44 11.51c3.65-.57 7.36-.23 11.03-.15-1.1 2.27-2.33 4.48-3.34 6.79 5.02.26 10.91-1.3 15.13 2.22 3.52 3.81 2.51 9.57.94 14.03-6.71 14.33-22.51 23.69-38.35 22.35-3.29 6.07-6.33 12.28-9.87 18.21-3.89.07-7.78.1-11.66-.05 5.98-10.51 11.57-21.23 17.86-31.57 1.75-3.22 4.2-6.18 4.92-9.85-3.59 1.95-6.14 5.88-10.39 6.45 2.75-7.49 10.91-10.68 16.2-16.05 2.86-3.9 4.58-8.54 7.53-12.38m2.43 15.34c-3.88 6.5-6.69 13.63-11.43 19.59 3.32.64 7.12 1.15 10.13-.79 6.06-3.44 11.96-9.43 11.36-16.94-2.5-3.04-6.66-1.76-10.06-1.86zm-138.59.49c6.17-5.69 14.21-10.22 22.88-9.31 4.45-.35 8.6 3.01 9.55 7.3.3 3.77-.9 7.54-2.68 10.83-.68 1-1.21 2.76-2.74 2.58-7.86.26-15.73.03-23.59.09-1.03 2.88-2.11 7 1.19 8.85 6.4 1.96 12.32-1.96 18.45-3.06-1.29 3.13-3.18 5.97-5.1 8.74-2.01 2.04-5.16 1.78-7.75 2.43-4.11.94-8.46 1.52-12.52.03-5.27-.63-7.84-6.71-7.18-11.44 1.41-6.43 4.66-12.53 9.49-17.04m8.08 4.72c3.93.1 7.85 0 11.78.09 1.97-1.8 2.47-4.98-.31-6.29-4.68-1.03-9.07 2.47-11.47 6.2zm74.93-5.73c5.2-4.16 11.19-8.34 18.15-8.3 4.31-.31 9.44-.07 11.88 4.14 2.53 5.44-.39 11.45-3.14 16.22-8.27 1.16-16.86-.06-25.24.61a33.93 33.93 0 0 0-.2 7.93c7.05 3.35 14.32-.98 21.24-2.46-2.73 3.13-4.39 7.28-7.39 10.07-6.4 1.14-13.17 3.53-19.57 1.1-3.32-.77-6.11-3.78-6.2-7.26-.89-8.58 4.11-16.68 10.47-22.05m6.86 5.73c4.15-.08 8.38.5 12.47-.38.5-1.36.46-2.84.65-4.26-1.53-.77-3.05-2.3-4.89-1.5-3.14 1.35-6.71 2.85-8.23 6.14zm-39.64-11.45c4.52-2.46 9.79-2.23 14.77-2.3 5.6.07 11.22-.24 16.8.38-1.78 2.54-3 5.43-4.91 7.88-2.03.44-4.12.35-6.17.44.19 9.54-8.43 16.54-16.9 18.94-3.87 1.52-8.13.18-12.09 1.19l.08 2.27c5.21 1.66 11.82 1.22 15.44 6.02 1.24 4.21-.02 8.91-3.12 11.99-3.78 4.59-9.85 6.08-15.39 7.27-6.38.2-13.67 1.24-19.06-2.99-1.8-2.19-1.52-5.53-.16-7.87 2.43-3.38 6.26-5.38 10.3-6.12-.3-2.65-1.64-5.44-.39-8.02 1.43-3.52 5.17-5.08 8.49-6.3-.49-2.33-1.56-4.61-1.38-7.03 1.74-7.03 6.94-13.09 13.69-15.75m-1.08 10.9c-1.47 1.86-2.85 4.94-1.33 7.01 6.6 2.57 13.7-5.5 11.82-11.92-4.22-2.06-8.21 1.68-10.49 4.91m-12.8 28.15c-3.11.73-6.91 2.06-7.24 5.79 5.04 2.52 11.58 1.97 16.63-.42.03-1.1.03-2.2-.01-3.29-3.09-.79-6.11-2.41-9.38-2.08zm-92.91 29.12c2.93-5.77 5.51-11.87 9.56-16.94 3.56-.45 7.16-.22 10.74-.03-6.34 13.31-14.16 25.91-21.5 38.71-3.17 5.02-5.31 10.65-8.75 15.5-5.44 2.36-11.7 1.95-17.52 1.78-4.58-.53-10.45-2.2-11.4-7.46-1.89-8.12 3.25-15.36 8.41-21.04 5.06-4.92 11.75-7.84 18.53-9.52 3.92-.87 8.12.34 11.93-1m-26.67 22.14c-.63 2.17-.78 4.92 1.06 6.58 2.2 1.66 5.12 1.46 7.72 1.29 2.66-2.44 3.88-6 5.68-9.05 1.56-3.57 4.14-6.64 5.31-10.38-8.2-.81-16.33 4.16-19.77 11.56zm42.28-13.52c6.36-5.25 14.63-8.99 23.03-7.91 2.77.03 5.54 1.62 6.86 4.04 1.95 5.86.22 12.43-3.48 17.23-7.85-.07-15.71-.22-23.56.04-2.84 2.21-2.08 8.49 2.14 8.59 5.73.89 10.8-2.7 16.4-3.09-1.34 3.27-3.41 6.15-5.33 9.09-5.76 1.87-12 3.1-18.09 2.32-3.56-.79-7.99-2.53-8.43-6.72-1.83-9.24 4.09-17.59 10.46-23.59m6.82 6.03c3.66.22 7.37.46 11.04.05 2.68-.33 1.81-3.46 2.05-5.32-5.16-1.81-10.2 1.06-13.09 5.27zm-79.28 59.11c4.24-14.84 21.88-24.01 36.52-19.32 2.05.73 5.63 1.18 5.67 3.97-1.5 3.31-3.54 6.37-5.72 9.27-4.35-3.8-10.46-6.02-16.1-4.03-3.61 1.63-7.69 5.8-4.96 9.91 3.37 2.85 7.36 5.29 9.62 9.21 1.32 3.52.96 7.58-.31 11.08-4.55 10.14-15.26 16.94-26.31 17.21-6.09-.17-12.29-1.57-17-5.65 1.73-3.19 3.39-6.44 5.51-9.38.32-.02.95-.07 1.26-.1 3.64 2.59 7.76 4.58 12.23 5.19 4.72.46 9.83-2.43 11.33-7.02.94-3.29-2.29-5.53-4.31-7.53-3.67-3.3-8.42-7.29-7.43-12.81zm263.01-12.32c1.2-2.57 2.51-5.11 4.28-7.34 10.59.04 21.19-.19 31.78.13-1.01 3.17-2.68 6.08-4.74 8.69-6.64.8-13.45.14-20.15.3-1.91 4.42-4.9 8.25-6.96 12.6 5.67.58 11.38.2 17.07.25-1.77 3.38-3.14 7.18-5.98 9.83-5.71.46-11.45.02-17.17.2-3.08 7.06-7.81 13.27-11.11 20.23-.64 1.24-1.12 2.59-2.06 3.64-4.06.28-8.16.35-12.19-.17 3.77-8.15 9.01-15.51 13.19-23.45 4.19-8.57 9.53-16.52 14.04-24.91zm-165.82-2.08c2.33-2.79 6.24-2.7 9.49-2.04 2.37 6.25-4.48 12.73-10.6 10.54-2.38-2.28-1.26-6.55 1.11-8.5zm65.69 5.72c3.98-1.16 8.31-.39 12.41-.11-1.87 2.01-3.25 4.41-4.19 6.98 2.38.13 4.78.17 7.17.24-1.7 3.08-3.35 6.29-5.87 8.79-3.04.62-7.71-1.42-9.1 2.44-2.67 5.56-7.9 10.29-7.67 16.87 3.26.18 6.31-1.08 9.49-1.51-2.01 2.79-2.75 6.2-4.33 9.2-3.09 2.01-6.9 2.68-10.5 3.08-3.87.38-8.44-2.1-8.24-6.46-.17-9.27 8-15.42 11.18-23.55-2.18 0-4.36-.03-6.53-.09.55-3.34 2.88-5.92 4.42-8.82 2.48-.07 4.96-.01 7.45-.02 1.57-2.27 2.83-4.72 4.31-7.04zm-72.97 7c3.78.06 7.57 0 11.36.06-4.91 10.02-11.32 19.23-16.27 29.23-1.8 2.79-2.98 6.07-5.12 8.59-3.79.37-7.6.09-11.4.12 7.09-12.69 14.07-25.45 21.43-38zm20.94.02c3.67.01 7.34.07 11-.1.1.72.29 2.15.38 2.87 4.42-.96 8.55-3.53 13.22-2.95 2.59-.2 5.89 1.8 5.56 4.71.76 6.47-3.75 11.69-6.56 17.07-3.58 5.23-5.79 11.25-9.45 16.43-3.83-.05-7.65 0-11.47-.02 3.68-6.53 7.69-12.88 10.99-19.62 1.32-2.79 4.06-5.29 3.48-8.63-.68-1.77-3.19-.76-4.6-.71-3.29 1.13-6.37 3.09-8.9 5.46-4.78 7.43-8 15.9-13.27 22.98-3.47 1.12-7.39.41-11 .17 2.87-7.13 7.63-13.29 11.13-20.11 2.87-6.01 6.65-11.53 9.49-17.55zm64.02 15.7c5.16-7.5 12.95-13.22 21.74-15.64 5.04-.46 11.33-1.27 14.68 3.5 3.78 5.44.25 12.32-2.96 17.13-8.19.56-16.44.11-24.65.2-.94 2.69-1.26 5.59-.06 8.27 6.83 2.36 13.3-1.34 19.85-2.65-1.43 3.58-3.63 6.99-6.57 9.5-5.07 2.22-10.73 3.38-16.26 2.81-4.66-.81-9.94-4.06-9.93-9.32-.57-4.99 1.87-9.57 4.16-13.8m14.1-1.95c3.92.36 7.87.32 11.8.04.05-1.89 1.17-4.46-.81-5.77-4.5-.92-9.06 1.65-10.99 5.73zm142.83-13.82c3.71.11 7.43.1 11.15.03.42 7.23-1.44 14.25-1.84 21.43 3.05-2.75 5.41-6.14 8.11-9.21 3.53-4.09 7.34-7.92 10.72-12.14 3.82-.03 7.64-.03 11.47-.07v1.82c-10.23 9.68-19.1 20.69-28.91 30.78-7 7.99-13.95 16.07-21.33 23.69-4.19.57-8.43.14-12.63.03 5.1-4.82 9.39-10.4 14.38-15.33 2.42-2.64 5.55-5.11 6.2-8.84 1.67-7.63.68-15.48.73-23.2.19 2.9.21 5.83.75 8.7.32-5.9.36-11.83 1.2-17.69zm-281.93 3.2c9.39-3.4 19.95-4.8 29.62-1.77-4.61 9.34-10.62 17.91-15.19 27.26-1.84 3.15-3.31 6.59-5.83 9.26-3.52-.44-8.96 1.95-10.82-2.09-3.25 1.42-6.52 3.26-10.16 3.19-3.76.19-7.15-2.59-8.44-5.99-1.1-5.6 1.73-10.89 4.31-15.64 4.18-6.01 9.78-11.21 16.51-14.22m2.62 8.58c-6.08 3.61-11.42 10.19-10.84 17.6 4.26.96 9.36.32 12.27-3.24 2.29-2.99 3.85-6.46 5.58-9.78 1.17-2.28 2.91-4.31 3.33-6.91-3.54.14-7.32.21-10.34 2.33zm253.23-11.15c4.69-1.24 10.12-1.35 14.35 1.36 4.97 2.35 4.95 9.04 3.5 13.59-3.41 9.32-10.96 17.04-20.09 20.89-4.81 1.65-10.08 3.49-15.16 1.94-3.34-.64-6.12-3.14-7.7-6.06-2.03-6.3.05-13.41 4.33-18.3 3.79-4.15 7.84-8.28 12.94-10.81 2.54-1.03 5.2-1.8 7.83-2.61m-3.29 9.9c-5.38 3.18-9.68 8.85-10.69 15.04 1.08 1.58 2.34 3.93 4.6 3.72 4.49.37 7.78-3.18 10.65-6.09 3.4-3.35 5.94-8.5 3.98-13.23-2.82-.7-5.97-1.13-8.54.56zm-86.07 3.44c8.32-.26 16.65-.14 24.97-.07-.55 4.27-3.74 7.44-5.34 11.3-8.58.12-17.17.1-25.75.01 1.43-4.05 4.06-7.51 6.12-11.24z" id="#01418dff" fill="#01418d"/></svg>