<svg width="310" height="80" viewBox="0 0 310 80" version="1.1" xmlns="http://www.w3.org/2000/svg"><defs>
<style type="text/css">
        @font-face {
  font-family: raleway_semi_bold;
  src: url("../fonts/Raleway-SemiBold.ttf");
}
</style>
</defs><title>Rectangle 11 + TIM + TIM</title><defs><linearGradient x1="0%" y1="0%" x2="100.896%" y2="99.907%" id="linearGradient-1"><stop stop-color="#00ABFF" offset="0%"/><stop stop-color="#009AFF" offset="100%"/></linearGradient><linearGradient x1="50%" y1="0%" x2="50%" y2="100%" id="linearGradient-2"><stop stop-color="#009CFF" stop-opacity=".276" offset="0%"/><stop stop-color="#004183" offset="100%"/></linearGradient></defs><g id="Page-1" stroke="none" stroke-width="1" fill="none" fill-rule="evenodd"><g id="Desktop-HD" transform="translate(-24 -29)"><g id="nav" transform="translate(0 -2)"><g id="Rectangle-11-+-TIM-+-TIM" transform="translate(24 31)"><text id="Techniques" font-family="raleway_semi_bold" font-size="18" font-weight="Light" fill="#000"><tspan x="200" y="30">Techniques</tspan> <tspan x="200" y="51">d’intégration</tspan> <tspan x="200" y="72">multimédia</tspan></text><path d="M.134 0h169.484l15.248 17v63H14.596L.62 60.488.134 0z" id="Rectangle-11" fill="url(#linearGradient-1)"/><path d="M54.218 68.22H38.731l4.558-42.295H27.007l1.01-9.368.425-3.947h47.973L74.98 25.925H58.777L54.218 68.22zm43.324-55.61l-5.994 55.61H76.06l5.995-55.61h15.487zm37.833 46.916h-8.26l-7.231-20.6-3.158 29.294h-15.488l.5-4.635 5.494-50.975h16.918l9.332 26.16 15.051-26.16h16.839l-.537 4.977-4.81 44.625-.648 6.008H143.89l3.157-29.294-11.672 20.6z" id="TIM" fill="url(#linearGradient-2)"/><path d="M70.309 25.925H54.106V68.22H38.618V25.925H22.336V12.61h47.973v13.315zm5.639 42.295V12.61h15.488v55.61H75.948zm67.83 0V38.926l-9.452 20.6h-8.26l-9.452-20.6V68.22h-15.488V12.61h16.917l12.152 26.16 12.232-26.16h16.838v55.61h-15.488z" id="TIM" fill="#FFF"/></g></g></g></g></svg>