<?xml version="1.0" encoding="UTF-8"?>
<svg width="294px" height="80px" viewBox="0 0 294 80" version="1.1" xmlns="http://www.w3.org/2000/svg" xmlns:xlink="http://www.w3.org/1999/xlink" xmlns:sketch="http://www.bohemiancoding.com/sketch/ns">
    <!-- Generator: Sketch 3.2.2 (9983) - http://www.bohemiancoding.com/sketch -->
    <title>tim-logo</title>
    <desc>Created with Sketch.</desc>
    <defs>
        <linearGradient x1="40.6229715%" y1="0%" x2="59.5450956%" y2="99.9069865%" id="linearGradient-1">
            <stop stop-color="#00ABFF" offset="0%"></stop>
            <stop stop-color="#009AFF" offset="100%"></stop>
        </linearGradient>
        <linearGradient x1="50%" y1="0%" x2="50%" y2="100%" id="linearGradient-2">
            <stop stop-color="#009CFF" stop-opacity="0.276381341" offset="0%"></stop>
            <stop stop-color="#004183" offset="100%"></stop>
        </linearGradient>
    </defs>
    <g id="Page-1" stroke="none" stroke-width="1" fill="none" fill-rule="evenodd" sketch:type="MSPage">
        <g id="tim-logo" sketch:type="MSLayerGroup">
            <g id="Page-1">
                <g id="Desktop-HD">
                    <g id="nav">
                        <g id="Rectangle-11-+-TIM-+-TIM">
                            <g id="Technique" transform="translate(200.000000, 16.000000)" font-size="15.3322502" font-family="Raleway" fill="#000000" sketch:type="MSTextLayer" font-weight="bold">
                                <text>
                                    <tspan x="0" y="14">Technique</tspan>
                                </text>
                                <text id="d’intégration">
                                    <tspan x="0" y="35">d’intégration</tspan>
                                </text>
                                <text id="multimédia">
                                    <tspan x="0" y="56">multimédia</tspan>
                                </text>
                            </g>
                            <path d="M169.61806,0 L184.866053,17 L184.866049,80 L12.9999998,80 L0.133951138,64 L0.133951138,0 L169.61806,0 Z" id="Rectangle-11" fill="url(#linearGradient-1)" sketch:type="MSShapeGroup"></path>
                            <path d="M54.2184401,68.2195122 L38.7305161,68.2195122 L43.2894536,25.9247681 L27.0072771,25.9247681 L28.0169869,16.5573622 L28.4424982,12.6097561 L76.41535,12.6097561 L74.9801289,25.9247681 L58.7773776,25.9247681 L54.2184401,68.2195122 L54.2184401,68.2195122 Z M97.5424669,12.6097561 L91.5483083,68.2195122 L76.0603843,68.2195122 L82.0545428,12.6097561 L97.5424669,12.6097561 L97.5424669,12.6097561 Z M135.375059,59.5255926 L127.114833,59.5255926 L119.883599,38.9264857 L116.726113,68.2195122 L101.238189,68.2195122 L101.737702,63.5853659 L107.232348,12.6097561 L124.149926,12.6097561 L133.482202,38.7698385 L148.533478,12.6097561 L165.37163,12.6097561 L164.835117,17.5871725 L160.024988,62.2122855 L159.377473,68.2195122 L143.889549,68.2195122 L147.047035,38.9264857 L135.375059,59.5255926 L135.375059,59.5255926 Z" id="TIM" fill="url(#linearGradient-2)" sketch:type="MSShapeGroup"></path>
                            <path d="M70.3088098,25.9247681 L54.1060586,25.9247681 L54.1060586,68.2195122 L38.6181345,68.2195122 L38.6181345,25.9247681 L22.335958,25.9247681 L22.335958,16.5573622 L22.335958,12.6097561 L70.3088098,12.6097561 L70.3088098,25.9247681 L70.3088098,25.9247681 Z M75.9480027,68.2195122 L75.9480027,12.6097561 L91.4359267,12.6097561 L91.4359267,68.2195122 L75.9480027,68.2195122 L75.9480027,68.2195122 Z M143.777167,68.2195122 L143.777167,38.9264857 L134.325562,59.5255926 L126.065336,59.5255926 L116.613731,38.9264857 L116.613731,68.2195122 L101.125807,68.2195122 L101.125807,63.5853659 L101.125807,12.6097561 L118.043386,12.6097561 L130.195449,38.7698385 L142.426938,12.6097561 L159.265089,12.6097561 L159.265091,17.5871725 L159.265089,62.2122855 L159.265092,68.2195122 L143.777167,68.2195122 L143.777167,68.2195122 Z" id="TIM" fill="#FFFFFF" sketch:type="MSShapeGroup"></path>
                        </g>
                    </g>
                </g>
            </g>
        </g>
    </g>
</svg>