<svg version="1.1" id="Calque_1" xmlns="http://www.w3.org/2000/svg" x="0" y="0" viewBox="0 0 800 600" xml:space="preserve"><style type="text/css">.st0{fill:#fff}</style><path class="st0" d="M165.5 147.6c.3-.1.8-.2 1.1-.3 5.1 7.8 9 16.3 13.8 24.3 8.6 14.7 17.1 29.5 25.7 44.1 9.7 17.8 20.3 35 30.3 52.6 6 11.3 12.8 22.1 19.1 33.3 14.1-11.8 30.2-21.1 46.9-29 9.9-4.1 19.7-8.5 30.1-11.2 15.4-4.7 31.4-7.3 47.4-9 11.4-.5 22.8-1.6 34.2-.5-5.6 13.4-11.9 26.4-18.2 39.5-4 .1-8-.8-12-.8-9.7 1.2-19.6.8-29.3 2.2-26.8 4-53.2 11.9-77.1 24.8-11.7 6.6-23.3 13.5-33.7 22.1-11.3 8.9-22.1 18.6-31.5 29.5-6.8 6.6-12.2 14.5-18.4 21.6-5 6.1-9.4 12.7-13.8 19.3-1.5 2.2-2.7 4.7-3.4 7.2 4-.8 5.9-4.6 8.4-7.3 8.3-9.3 17.3-18.1 27.1-25.9 8-7.4 17.3-13.3 26.2-19.6 6.9-4.6 14.3-8.3 21.4-12.6 13.9-7.1 28.4-12.7 43.2-17.6 11.9-3.6 24.1-5.8 36.4-7.7 10.1-1.4 20.3-1 30.4-2 3.4-.2 6.7.5 10 .7-4.6 11.7-10.8 22.6-15.5 34.2-7.5-.1-15-.9-22.5-1-11.5.8-23.2.6-34.6 3-5 1-10.1 1.5-15.1 2.8 11.6 21.5 24.1 42.6 36.6 63.6.6 1.3.9 2.8 1.2 4.3-49.1-.1-98.3-.2-147.4 0l-.3-6.9c-13.2-.2-26.4-.3-39.6.1-.1 2.2-.2 4.5-.4 6.8-47.4 0-94.9-.1-142.3 0v-1.7c3.6-4.5 6-9.8 9.1-14.7 4.5-7.4 8.7-15 13.5-22.3 8.2-13.6 16.1-27.3 24.2-41 6.2-9.6 11.5-19.8 17.5-29.5 3.4-5.5 6.2-11.3 9.9-16.6 3.5 2.1 6.5 4.9 9.3 7.8 24 23.3 43.9 50.8 58 81.2 3.7 7.1 6.1 14.9 10.2 21.9.9-.1 2.8-.3 3.7-.4-.5-7.8-2.8-15.4-4.9-22.9-10-32.1-25.3-62.8-47.5-88.2-5.3-6.9-11.8-12.5-17.7-18.8 4.5-7.7 8.8-15.5 13.7-22.9 6.7 5.7 11.3 13.2 16.8 19.8 6.4 9.8 12.5 19.9 17.5 30.5 3.5 8.4 7 16.8 10.1 25.3 4.7 12.6 7.7 25.8 10.7 38.9 1.3 8.4 3.6 16.7 4 25.3.4 4.2.2 8.6 1.5 12.6 1.3 1.3 3.4.2 5.1.4-.2-12.4-.6-24.8-2.1-37.2-.6-13-3.5-25.8-5-38.7-1.8-9.5-4.7-18.7-6.9-28-6.4-20.4-14.6-40.4-26.7-58.1-3-5.2-7.5-9.4-11-14.2.4-2 1.5-3.8 2.5-5.6 4.9-8.3 9.8-16.5 14.2-25.1 5.7-10 11.9-19.7 17.1-29.9 6.3-10.6 12.4-21.6 18.8-32.5m-12.6 38.3c-5.6 10.3-11.9 20.3-17.4 30.7-1.2 2.4-3.1 4.6-3.5 7.3 1.7 3.6 4 6.9 5.7 10.5 11.1 20.9 17.8 43.8 22.4 66.9 3.4 12.4 4 25.2 6.2 37.8 0 4.3.7 8.6 1.1 12.9 1 21.6 1.8 43.3 1 64.9 1.3 0 3 1 3.9-.4 9.6-25.6 23.3-49.6 40-71.3 5.8-6.6 10.8-13.7 17.1-19.8 6.1-5.9 11.8-12.3 18.6-17.4 1.1-.7.9-2.3.3-3.2-5.9-11-12.5-21.5-18.6-32.4-4.1-7.3-8.8-14.2-12.5-21.7-8.1-13.8-16.1-27.7-24.2-41.5-2-4.2-4.5-8-6.9-11.9-5.5-10.7-12.1-20.8-17.9-31.3-.6-1.1-1.4-2.1-2.2-3-4.5 7.4-8.9 15.1-13.1 22.9M44.7 371.6c-10.3 17.5-20.7 35-30.8 52.6 2.7.1 5.4.2 8.1.2 40.1-.1 80.2.1 120.3-.1.1-2.3.1-4.6.1-6.9 1.2-.1 2.5-.2 3.7-.3-2.7-6.9-7.1-12.9-11.1-19.1-18.2-25.5-40.2-48.5-66.1-66.3-8.5 13-15.7 26.8-24.2 39.9m217.5 1.8c-27.9 10.1-54.5 24.3-77.6 43.2-2.1 1.4-2.2 4.1-2 6.4 1 2.1 3.5 1.2 5.3 1.5 42.9-.2 85.7.2 128.6-.2-3.8-8.1-8.9-15.5-13.1-23.4-6-11.4-13-22.2-18.9-33.5-7.9-.2-14.7 4.5-22.3 6zM498 248c9.9-7.8 22.4-11.9 35-12.5 4.8.1 9.6 1.2 14.2 2.6-1.4 3.4-3.1 6.8-5.4 9.7-4.3.7-8.4-1.6-12.8-1.3-8.8.3-17.9 3-24.1 9.4-5.4 5.3-11.5 11.9-10.6 20.1 0 2.5 2.3 4.2 4.2 5.5 4.3 1.6 9.1 1 13.6.5 5.2-.6 9.7-3.7 14.8-4.6-.8 3.4-2.5 6.4-4.2 9.4-1.7 3.2-5.6 3.9-8.9 4.8-6.9 1.1-14.1 3-21.1 1-6.3-.6-12-6-12-12.5-.7-6.4 2.2-12.5 5.1-18 2.9-5.7 7.8-9.8 12.2-14.1zm73.7-11.4c4.5 0 8.9-.1 13.4 0-5.3 5.3-12.1 8.9-18.1 13.4-2.5 2.2-5.9 1.4-8.9 1.6 4.1-5.3 9.5-9.6 13.6-15zm106.5 11.6c3.7-.6 7.4-.2 11-.2-1.1 2.3-2.3 4.5-3.3 6.8 5 .3 10.9-1.3 15.1 2.2 3.5 3.8 2.5 9.6.9 14-6.7 14.3-22.5 23.7-38.3 22.4-3.3 6.1-6.3 12.3-9.9 18.2-3.9.1-7.8.1-11.7 0 6-10.5 11.6-21.2 17.9-31.6 1.8-3.2 4.2-6.2 4.9-9.8-3.6 1.9-6.1 5.9-10.4 6.4 2.8-7.5 10.9-10.7 16.2-16 2.9-4 4.6-8.6 7.6-12.4m2.4 15.3c-3.9 6.5-6.7 13.6-11.4 19.6 3.3.6 7.1 1.1 10.1-.8 6.1-3.4 12-9.4 11.4-16.9-2.5-3.1-6.7-1.8-10.1-1.9zM542 264c6.2-5.7 14.2-10.2 22.9-9.3 4.5-.3 8.6 3 9.5 7.3.3 3.8-.9 7.5-2.7 10.8-.7 1-1.2 2.8-2.7 2.6-7.9.3-15.7 0-23.6.1-1 2.9-2.1 7 1.2 8.8 6.4 2 12.3-2 18.5-3.1-1.3 3.1-3.2 6-5.1 8.7-2 2-5.2 1.8-7.8 2.4-4.1.9-8.5 1.5-12.5 0-5.3-.6-7.8-6.7-7.2-11.4 1.4-6.3 4.7-12.4 9.5-16.9m8.1 4.7c3.9.1 7.8 0 11.8.1 2-1.8 2.5-5-.3-6.3-4.7-1-9.1 2.5-11.5 6.2zM625 263c5.2-4.2 11.2-8.3 18.1-8.3 4.3-.3 9.4-.1 11.9 4.1 2.5 5.4-.4 11.4-3.1 16.2-8.3 1.2-16.9-.1-25.2.6-.4 2.6-.4 5.3-.2 7.9 7 3.4 14.3-1 21.2-2.5-2.7 3.1-4.4 7.3-7.4 10.1-6.4 1.1-13.2 3.5-19.6 1.1-3.3-.8-6.1-3.8-6.2-7.3-.8-8.4 4.2-16.5 10.5-21.9m6.9 5.7c4.2-.1 8.4.5 12.5-.4.5-1.4.5-2.8.6-4.3-1.5-.8-3-2.3-4.9-1.5-3.1 1.4-6.7 2.9-8.2 6.2zm-39.7-11.4c4.5-2.5 9.8-2.2 14.8-2.3 5.6.1 11.2-.2 16.8.4-1.8 2.5-3 5.4-4.9 7.9-2 .4-4.1.4-6.2.4.2 9.5-8.4 16.5-16.9 18.9-3.9 1.5-8.1.2-12.1 1.2 0 .6.1 1.7.1 2.3 5.2 1.7 11.8 1.2 15.4 6 1.2 4.2 0 8.9-3.1 12-3.8 4.6-9.8 6.1-15.4 7.3-6.4.2-13.7 1.2-19.1-3-1.8-2.2-1.5-5.5-.2-7.9 2.4-3.4 6.3-5.4 10.3-6.1-.3-2.6-1.6-5.4-.4-8 1.4-3.5 5.2-5.1 8.5-6.3-.5-2.3-1.6-4.6-1.4-7 1.9-7.1 7.1-13.2 13.8-15.8m-1 10.9c-1.5 1.9-2.9 4.9-1.3 7 6.6 2.6 13.7-5.5 11.8-11.9-4.3-2.1-8.3 1.6-10.5 4.9m-12.9 28.1c-3.1.7-6.9 2.1-7.2 5.8 5 2.5 11.6 2 16.6-.4v-3.3c-3.1-.8-6.1-2.4-9.4-2.1zm-92.9 29.1c2.9-5.8 5.5-11.9 9.6-16.9 3.6-.4 7.2-.2 10.7 0-6.3 13.3-14.2 25.9-21.5 38.7-3.2 5-5.3 10.6-8.8 15.5-5.4 2.4-11.7 1.9-17.5 1.8-4.6-.5-10.5-2.2-11.4-7.5-1.9-8.1 3.2-15.4 8.4-21 5.1-4.9 11.8-7.8 18.5-9.5 4-.9 8.2.3 12-1.1m-26.6 22.2c-.6 2.2-.8 4.9 1.1 6.6 2.2 1.7 5.1 1.5 7.7 1.3 2.7-2.4 3.9-6 5.7-9 1.6-3.6 4.1-6.6 5.3-10.4-8.3-.9-16.4 4.1-19.8 11.5zM501 334c6.4-5.2 14.6-9 23-7.9 2.8 0 5.5 1.6 6.9 4 2 5.9.2 12.4-3.5 17.2-7.9-.1-15.7-.2-23.6 0-2.8 2.2-2.1 8.5 2.1 8.6 5.7.9 10.8-2.7 16.4-3.1-1.3 3.3-3.4 6.1-5.3 9.1-5.8 1.9-12 3.1-18.1 2.3-3.6-.8-8-2.5-8.4-6.7-1.7-9.1 4.2-17.5 10.5-23.5m6.9 6.1c3.7.2 7.4.5 11 .1 2.7-.3 1.8-3.5 2.1-5.3-5.2-1.9-10.2 1-13.1 5.2zm-79.3 59.1c4.2-14.8 21.9-24 36.5-19.3 2.1.7 5.6 1.2 5.7 4-1.5 3.3-3.5 6.4-5.7 9.3-4.4-3.8-10.5-6-16.1-4-3.6 1.6-7.7 5.8-5 9.9 3.4 2.9 7.4 5.3 9.6 9.2 1.3 3.5 1 7.6-.3 11.1-4.5 10.1-15.3 16.9-26.3 17.2-6.1-.2-12.3-1.6-17-5.6 1.7-3.2 3.4-6.4 5.5-9.4.3 0 .9-.1 1.3-.1 3.6 2.6 7.8 4.6 12.2 5.2 4.7.5 9.8-2.4 11.3-7 .9-3.3-2.3-5.5-4.3-7.5-3.6-3.5-8.4-7.5-7.4-13zm263-12.3c1.2-2.6 2.5-5.1 4.3-7.3 10.6 0 21.2-.2 31.8.1-1 3.2-2.7 6.1-4.7 8.7-6.6.8-13.5.1-20.1.3-1.9 4.4-4.9 8.2-7 12.6 5.7.6 11.4.2 17.1.2-1.8 3.4-3.1 7.2-6 9.8-5.7.5-11.5 0-17.2.2-3.1 7.1-7.8 13.3-11.1 20.2-.6 1.2-1.1 2.6-2.1 3.6-4.1.3-8.2.4-12.2-.2 3.8-8.2 9-15.5 13.2-23.5 4.2-8.4 9.5-16.3 14-24.7zm-165.8-2.1c2.3-2.8 6.2-2.7 9.5-2 2.4 6.2-4.5 12.7-10.6 10.5-2.4-2.3-1.3-6.6 1.1-8.5zm65.7 5.7c4-1.2 8.3-.4 12.4-.1-1.9 2-3.2 4.4-4.2 7 2.4.1 4.8.2 7.2.2-1.7 3.1-3.3 6.3-5.9 8.8-3 .6-7.7-1.4-9.1 2.4-2.7 5.6-7.9 10.3-7.7 16.9 3.3.2 6.3-1.1 9.5-1.5-2 2.8-2.8 6.2-4.3 9.2-3.1 2-6.9 2.7-10.5 3.1-3.9.4-8.4-2.1-8.2-6.5-.2-9.3 8-15.4 11.2-23.5-2.2 0-4.4 0-6.5-.1.6-3.3 2.9-5.9 4.4-8.8 2.5-.1 5 0 7.4 0 1.5-2.3 2.8-4.8 4.3-7.1zm-73 7c3.8.1 7.6 0 11.4.1-4.9 10-11.3 19.2-16.3 29.2-1.8 2.8-3 6.1-5.1 8.6-3.8.4-7.6.1-11.4.1 7.1-12.7 14-25.4 21.4-38zm20.9 0c3.7 0 7.3.1 11-.1.1.7.3 2.1.4 2.9 4.4-1 8.5-3.5 13.2-2.9 2.6-.2 5.9 1.8 5.6 4.7.8 6.5-3.8 11.7-6.6 17.1-3.6 5.2-5.8 11.2-9.4 16.4h-11.5c3.7-6.5 7.7-12.9 11-19.6 1.3-2.8 4.1-5.3 3.5-8.6-.7-1.8-3.2-.8-4.6-.7-3.3 1.1-6.4 3.1-8.9 5.5-4.8 7.4-8 15.9-13.3 23-3.5 1.1-7.4.4-11 .2 2.9-7.1 7.6-13.3 11.1-20.1 2.9-6.2 6.7-11.8 9.5-17.8zm64.1 15.7c5.2-7.5 12.9-13.2 21.7-15.6 5-.5 11.3-1.3 14.7 3.5 3.8 5.4.2 12.3-3 17.1-8.2.6-16.4.1-24.6.2-.9 2.7-1.3 5.6-.1 8.3 6.8 2.4 13.3-1.3 19.8-2.6-1.4 3.6-3.6 7-6.6 9.5-5.1 2.2-10.7 3.4-16.3 2.8-4.7-.8-9.9-4.1-9.9-9.3-.5-5.1 2-9.6 4.3-13.9m14.1-1.9c3.9.4 7.9.3 11.8 0 0-1.9 1.2-4.5-.8-5.8-4.6-.9-9.1 1.7-11 5.8zm142.8-13.8c3.7.1 7.4.1 11.1 0 .4 7.2-1.4 14.2-1.8 21.4 3-2.8 5.4-6.1 8.1-9.2 3.5-4.1 7.3-7.9 10.7-12.1 3.8 0 7.6 0 11.5-.1v1.8c-10.2 9.7-19.1 20.7-28.9 30.8-7 8-14 16.1-21.3 23.7-4.2.6-8.4.1-12.6 0 5.1-4.8 9.4-10.4 14.4-15.3 2.4-2.6 5.5-5.1 6.2-8.8 1.7-7.6.7-15.5.7-23.2.2 2.9.2 5.8.8 8.7.2-6 .2-11.9 1.1-17.7zm-281.9 3.2c9.4-3.4 20-4.8 29.6-1.8-4.6 9.3-10.6 17.9-15.2 27.3-1.8 3.1-3.3 6.6-5.8 9.3-3.5-.4-9 1.9-10.8-2.1-3.2 1.4-6.5 3.3-10.2 3.2-3.8.2-7.1-2.6-8.4-6-1.1-5.6 1.7-10.9 4.3-15.6 4.1-6.1 9.7-11.3 16.5-14.3m2.6 8.5c-6.1 3.6-11.4 10.2-10.8 17.6 4.3 1 9.4.3 12.3-3.2 2.3-3 3.8-6.5 5.6-9.8 1.2-2.3 2.9-4.3 3.3-6.9-3.6.1-7.4.2-10.4 2.3zm253.2-11.1c4.7-1.2 10.1-1.4 14.3 1.4 5 2.3 5 9 3.5 13.6-3.4 9.3-11 17-20.1 20.9-4.8 1.6-10.1 3.5-15.2 1.9-3.3-.6-6.1-3.1-7.7-6.1-2-6.3 0-13.4 4.3-18.3 3.8-4.2 7.8-8.3 12.9-10.8 2.7-1 5.4-1.8 8-2.6M731 408c-5.4 3.2-9.7 8.9-10.7 15 1.1 1.6 2.3 3.9 4.6 3.7 4.5.4 7.8-3.2 10.7-6.1 3.4-3.4 5.9-8.5 4-13.2-2.9-.7-6-1.1-8.6.6zm-86 3.4c8.3-.3 16.6-.1 25-.1-.5 4.3-3.7 7.4-5.3 11.3-8.6.1-17.2.1-25.8 0 1.4-4 4-7.4 6.1-11.2z" id="_x23_01418dff"/></svg>